<?xml version="1.0" standalone="no"?>
<!DOCTYPE svg PUBLIC "-//W3C//DTD SVG 20010904//EN"
 "http://www.w3.org/TR/2001/REC-SVG-20010904/DTD/svg10.dtd">
<svg version="1.0" xmlns="http://www.w3.org/2000/svg"
 width="512.000000pt" height="512.000000pt" viewBox="0 0 512.000000 512.000000"
 preserveAspectRatio="xMidYMid meet">

<g transform="translate(0.000000,512.000000) scale(0.100000,-0.100000)"
fill="#000000" stroke="none">
<path d="M2785 4980 c-218 -46 -435 -161 -630 -335 -66 -58 -74 -62 -133 -69
-35 -4 -100 -15 -145 -25 -476 -106 -854 -375 -1044 -746 -95 -183 -216 -442
-247 -528 -144 -390 -164 -809 -55 -1147 48 -146 133 -320 218 -444 l30 -44
-364 -428 c-201 -236 -374 -448 -385 -470 -49 -100 -31 -213 45 -289 53 -53
585 -330 667 -347 71 -15 153 8 208 58 23 21 139 190 276 402 130 202 240 371
245 376 4 5 39 -12 78 -38 318 -209 647 -272 868 -165 68 32 293 261 366 370
153 231 194 380 224 825 l8 112 110 -80 c578 -418 1128 -759 1288 -799 143
-35 300 52 427 236 43 62 132 243 163 331 93 261 134 593 107 852 -20 184 -67
326 -181 552 -215 427 -591 932 -994 1336 -346 348 -524 463 -783 509 -108 20
-259 17 -367 -5z m385 -176 c90 -21 231 -91 326 -163 401 -303 990 -1023 1253
-1532 134 -258 171 -373 191 -588 42 -445 -181 -1079 -413 -1176 -36 -15 -43
-15 -90 1 -163 53 -575 313 -1178 742 l-247 175 -6 131 c-59 1183 -22 1753
133 2051 28 53 26 81 -8 116 -33 33 -74 38 -109 13 -58 -40 -138 -268 -176
-504 -41 -257 -55 -674 -37 -1160 30 -796 25 -1122 -19 -1350 -27 -144 -76
-247 -185 -394 -50 -69 -209 -236 -223 -236 -12 0 -246 171 -361 263 -443 354
-823 794 -997 1154 -52 109 -117 298 -144 420 -86 397 -16 805 188 1093 99
140 277 292 437 373 137 69 319 137 369 137 22 0 -138 -205 -234 -300 -42 -41
-102 -91 -134 -110 -122 -75 -141 -92 -144 -136 -3 -45 21 -79 65 -90 48 -12
217 91 336 205 27 25 99 111 161 191 292 376 529 568 806 654 151 47 291 53
440 20z m-1737 -3311 c59 -61 107 -114 107 -118 0 -4 -37 -64 -83 -134 -46
-69 -201 -309 -345 -533 -145 -223 -268 -411 -275 -416 -40 -31 -62 -25 -284
89 -318 162 -360 187 -374 221 -10 24 -9 35 2 58 8 16 230 283 493 593 l479
564 87 -106 c48 -59 135 -156 193 -218z"/>
<path d="M4644 2427 c-26 -23 -28 -30 -35 -143 -10 -151 -33 -253 -72 -327
-40 -77 -84 -107 -155 -107 -46 0 -58 -4 -83 -29 -32 -33 -36 -58 -14 -101 29
-57 136 -64 238 -17 156 73 248 269 264 566 l6 120 -31 30 c-38 38 -80 41
-118 8z"/>
<path d="M1121 1473 c-35 -34 -580 -658 -604 -693 -25 -36 -21 -68 12 -101 38
-37 77 -38 118 -1 33 29 577 651 606 692 60 87 -54 176 -132 103z"/>
<path d="M3542 1323 c-22 -9 -44 -63 -37 -93 9 -39 37 -62 81 -63 73 -2 111
87 59 138 -23 24 -69 32 -103 18z"/>
<path d="M3970 899 c-153 -28 -244 -179 -198 -331 15 -49 78 -123 129 -149
128 -65 290 -3 349 133 27 64 24 151 -8 214 -23 45 -79 99 -121 116 -39 16
-111 24 -151 17z m85 -175 c19 -8 45 -55 45 -83 0 -11 -10 -32 -23 -46 -32
-38 -92 -38 -124 0 -13 14 -23 35 -23 46 0 26 26 76 42 82 19 8 64 8 83 1z"/>
<path d="M3278 540 c-74 -57 -4 -175 82 -140 36 15 50 37 50 80 0 67 -79 102
-132 60z"/>
</g>
</svg>
